<svg xmlns="http://www.w3.org/2000/svg" width="147" height="48" viewBox="0 0 147 48" role="img" aria-label="LinkedIn">
  <rect width="147" height="48" rx="24.0" fill="#F3F2ED"/>
  <path d="M25.258012451171876 30.12V17.880000000000003H27.059987548828126V30.12ZM26.142002075195315 30.12V28.635349243164065H33.213995849609375V30.12ZM35.08967358398438 30.12V21.450000000000003H36.84631604003906V30.12ZM34.99333990478516 19.7499833984375V17.766673583984375H36.94264971923828V19.7499833984375ZM39.16967358398438 30.12V21.450000000000003H40.85264868164063V23.490000000000002H40.92631604003906V30.12ZM45.31801037597656 30.12V24.543993774414062Q45.31801037597656 23.648654907226565 44.867507781982425 23.200985473632812Q44.41700518798828 22.753316040039063 43.538666320800786 22.753316040039063Q42.7736611328125 22.753316040039063 42.1814906616211 23.093318115234375Q41.58932019042969 23.43332019042969 41.25781811523437 24.033990661621097Q40.92631604003906 24.6346611328125 40.92631604003906 25.439332641601563L40.705316040039065 23.371000000000002Q41.14164971923828 22.407666320800782 42.02281811523437 21.843833160400393Q42.90398651123047 21.28 44.07698547363282 21.28Q45.46531707763672 21.28 46.26998495483399 22.064832641601562Q47.074652832031255 22.849665283203127 47.074652832031255 24.141663208007813V30.12ZM49.30167358398438 30.12V17.653326416015624H51.05831604003907V30.12ZM54.928675659179696 30.12 50.655988586425785 25.615000000000002 54.787007263183604 21.450000000000003H57.01398547363282L52.31630151367188 26.006L52.412634155273444 25.207L57.183985473632816 30.12ZM62.1423295288086 30.290000000000003Q60.83333367919923 30.290000000000003 59.84166943359376 29.709166320800783Q58.85000518798829 29.128332641601563 58.291839385986336 28.108332641601564Q57.733673583984384 27.088332641601564 57.733673583984384 25.762332641601564Q57.733673583984384 24.430666320800782 58.28617254638672 23.419166320800784Q58.83867150878907 22.407666320800782 59.83600311279298 21.843833160400393Q60.833334716796884 21.28 62.136665283203136 21.28Q63.38899584960939 21.28 64.31266061401368 21.81266632080078Q65.23632537841797 22.345332641601562 65.74065750122071 23.30299896240234Q66.24498962402345 24.260665283203124 66.24498962402345 25.558331604003907Q66.24498962402345 25.762329528808593 66.23365646362305 25.94082797241211Q66.22232330322267 26.119326416015625 66.18832330322266 26.311992736816407H58.91233056640626V24.991670471191405H64.94734820556641L64.50534820556642 25.513010375976563Q64.50534820556642 24.119 63.87917773437501 23.390826416015624Q63.253007263183605 22.66265283203125 62.125332641601574 22.66265283203125Q60.92966009521485 22.66265283203125 60.21848858642579 23.484323822021484Q59.50731707763673 24.30599481201172 59.50731707763673 25.76799792480469Q59.50731707763673 27.241335754394534 60.21848858642579 28.074341461181643Q60.92966009521485 28.90734716796875 62.1819979248047 28.90734716796875Q62.941335754394544 28.90734716796875 63.50800622558595 28.595677215576174Q64.07467669677736 28.284007263183593 64.34101141357422 27.67766943359375H66.001322265625Q65.57632226562501 28.890334716796875 64.57048962402345 29.59016735839844Q63.56465698242189 30.290000000000003 62.1423295288086 30.290000000000003ZM74.13301037597657 30.12V28.13099792480469L74.30301037597657 28.176331604003906Q74.03100726318361 29.145332641601563 73.17817358398439 29.71766632080078Q72.32533990478517 30.290000000000003 71.14100622558595 30.290000000000003Q69.96233990478517 30.290000000000003 69.08683990478517 29.73183316040039Q68.21133990478516 29.17366632080078 67.72967306518555 28.170666320800784Q67.24800622558595 27.167666320800784 67.24800622558595 25.819000000000003Q67.24800622558595 24.45333367919922 67.74100622558595 23.43333367919922Q68.23400622558594 22.41333367919922 69.12083938598633 21.85233367919922Q70.00767254638673 21.29133367919922 71.19767254638673 21.29133367919922Q72.42733886718752 21.29133367919922 73.24050674438479 21.880667358398437Q74.05367462158205 22.470001037597655 74.30301141357423 23.52966943359375L74.05934301757813 23.558003112792967V17.880000000000003H75.81598547363282V30.12ZM71.58299481201173 28.816683959960937Q72.75600311279298 28.816683959960937 73.43600674438477 28.009178771972657Q74.11601037597657 27.201673583984377 74.11601037597657 25.773666320800782Q74.11601037597657 24.368326416015627 73.42750674438477 23.566488067626956Q72.73900311279297 22.76464971923828 71.57166217041016 22.76464971923828Q70.41565386962891 22.76464971923828 69.73848391723634 23.56932122802734Q69.06131396484376 24.373992736816405 69.06131396484376 25.813333679199218Q69.06131396484376 27.230007263183595 69.73848391723634 28.023345611572267Q70.41565386962891 28.816683959960937 71.58299481201173 28.816683959960937ZM78.1450124511719 30.12V17.880000000000003H79.94698754882813V30.12ZM82.28167358398439 30.12V21.450000000000003H83.96464868164064V23.490000000000002H84.03831604003908V30.12ZM88.43001037597658 30.12V24.543993774414062Q88.43001037597658 23.648654907226565 87.97950778198243 23.200985473632812Q87.52900518798829 22.753316040039063 86.6506663208008 22.753316040039063Q85.88566113281252 22.753316040039063 85.2934906616211 23.093318115234375Q84.7013201904297 23.43332019042969 84.36981811523438 24.033990661621097Q84.03831604003908 24.6346611328125 84.03831604003908 25.439332641601563L83.81731604003907 23.371000000000002Q84.2536497192383 22.407666320800782 85.1348181152344 21.843833160400393Q86.01598651123048 21.28 87.18898547363283 21.28Q88.57731707763674 21.28 89.381984954834 22.064832641601562Q90.18665283203126 22.849665283203127 90.18665283203126 24.141663208007813V30.12Z" fill="#101010"/>
  <circle cx="123.0" cy="24.0" r="18.0" fill="#101010"/>
  <path d="M117.0 30.0 L129.0 18.0 M119.0 18.0 H129.0 V28.0" stroke="#F3F2ED" stroke-width="2" fill="none" stroke-linecap="round" stroke-linejoin="round"/>
</svg>
